<svg xmlns="http://www.w3.org/2000/svg" height="24" width="24" fill="#000000" style=""><rect id="backgroundrect" width="100%" height="100%" x="0" y="0" fill="none" stroke="none"/><g class="currentLayer" style=""><title>Layer 1</title><path d="M0 0h24v24H0V0z" fill="none" id="svg_1"/><path d="M20 4v12H8V4h12m0-2H8c-1.1 0-2 .9-2 2v12c0 1.1.9 2 2 2h12c1.1 0 2-.9 2-2V4c0-1.1-.9-2-2-2zm-8.5 9.67l1.69 2.26 2.48-3.1L19 15H9zM2 6v14c0 1.1.9 2 2 2h14v-2H4V6H2z" id="svg_2" class="" fill="#ff223c" fill-opacity="1"/><polyline fill="#4141e8" stroke="#222222" stroke-width="2" stroke-linejoin="round" stroke-dashoffset="" fill-rule="nonzero" marker-start="" marker-mid="" marker-end="" id="svg_3" points="21.09090643086705,7.454542720613375 21.09090643086705,7.454542720613375 " style="color: rgb(0, 0, 0);"/></g></svg>